<svg width="156" height="48" viewBox="0 0 156 48" fill="none" xmlns="http://www.w3.org/2000/svg">
<path d="M11.5242 22.8182C12.0176 20.3939 14.176 18.697 17.2596 18.697C20.8364 18.697 23.5808 20.1515 23.5808 24.9091V33.697H20.5589L20.1889 31.8182C19.1405 33.0909 17.7221 33.9394 15.5636 33.9394C13.0043 33.9394 11 32.3636 11 29.4545C11 26.5455 13.6518 24.6364 17.4137 24.6364H19.9114V23.9697C19.9114 22.303 18.6471 21.7879 17.2596 21.7879C16.2112 21.7879 15.1319 22.1212 14.6694 23.4848L11.5242 22.8182ZM16.3962 30.8485C18.0921 30.8485 19.8497 29.7273 19.8497 27.8182V27.5455H17.3829C15.7795 27.4848 14.8236 28.1212 14.8236 29.3939C14.8544 30.0909 15.3786 30.8485 16.3962 30.8485Z" fill="#010202"/>
<path d="M83.6478 22.8182C84.1412 20.3939 86.2997 18.697 89.3832 18.697C92.9601 18.697 95.7044 20.1515 95.7044 24.9091V33.697H92.6826L92.3125 31.8182C91.2641 33.0909 89.8457 33.9394 87.6872 33.9394C85.1279 33.9394 83.1236 32.3636 83.1236 29.4545C83.1236 26.5455 85.7755 24.6364 89.5374 24.6364H92.035V23.9697C92.035 22.303 90.7708 21.7879 89.3832 21.7879C88.3348 21.7879 87.2556 22.1212 86.793 23.4848L83.6478 22.8182ZM88.5198 30.8485C90.2157 30.8485 91.9733 29.7273 91.9733 27.8182V27.5455H89.5065C87.9031 27.5455 86.9472 28.1212 86.9472 29.4242C86.978 30.0909 87.5022 30.8485 88.5198 30.8485Z" fill="#010202"/>
<path d="M99.0654 33.7273V18.9091H102.766V21.3333C103.814 19.5758 105.51 18.697 107.206 18.697C107.884 18.697 108.409 18.7879 109.025 18.9697L108.347 22.3333C107.915 22.0606 107.422 21.9091 106.805 21.9091C104.647 21.9091 102.766 23.6667 102.766 28.4242V33.6667L99.0654 33.7273Z" fill="#010202"/>
<path d="M116.919 18.697C118.461 18.697 119.91 19.4545 120.588 20.2727V13H124.289V33.7576H120.588V32.2424C120.157 33 118.8 34 116.919 34C112.386 34 110.074 30.9394 110.074 26.3939C110.074 21.8182 112.386 18.697 116.919 18.697ZM117.443 30.8485C119.355 30.8485 120.897 29.2727 120.897 26.3636C120.897 23.4242 119.355 21.8788 117.443 21.8788C115.531 21.8788 113.99 23.4545 113.99 26.3636C113.959 29.303 115.501 30.8485 117.443 30.8485Z" fill="#010202"/>
<path d="M137.671 21.0606L135.451 23.0606C134.773 22.1515 133.755 21.7879 132.953 21.7879C132.244 21.7879 131.566 22.2121 131.566 23.0303C131.566 23.697 132.09 24.1515 133.015 24.4545C135.081 25.2121 138.442 25.8182 138.442 29C138.442 31.697 136.376 33.9091 133.108 33.9091C129.993 33.9091 127.866 31.7273 127.126 29.9394L130.055 28.3636C130.579 29.7879 131.597 30.8182 133.077 30.8182C134.218 30.8182 134.958 30.303 134.958 29.2121C134.958 27.9697 133.046 27.697 131.196 26.9394C129.562 26.2727 128.174 25.2424 128.174 22.9697C128.174 20.697 130.055 18.6667 132.984 18.6667C134.958 18.6364 136.746 19.6364 137.671 21.0606Z" fill="#010202"/>
<path d="M60.5522 18.9394L57.9004 29.0909L55.3411 18.9394H51.8875L49.359 29.0909L47.2622 23.1818L47.0156 23.9091L45.813 27.697L47.7248 33.7273H51.0241L53.6143 24.1818L56.2045 33.7273H59.473L64.2833 18.9394H60.5522Z" fill="#010202"/>
<path d="M78.4367 18.9394L75.754 29.0909L73.1947 18.9394H69.7411L67.2435 29.0909L65.1159 23.1818L64.8692 23.9091L63.6666 27.697L65.6092 33.7273H68.8777L71.4679 24.1818L74.0581 33.7273H77.3266L82.1677 18.9394H78.4367Z" fill="#010202"/>
<path d="M46.4297 18.9394L41.6194 33.697H38.3509L35.7607 24.1515L33.1705 33.7576H29.902L25.0917 19H28.8536L31.5363 29.1212L34.0956 19H37.5183L40.0776 29.1212L42.7603 19L46.4297 18.9394Z" fill="#010202"/>
<path d="M143.252 28.9697C144.702 28.9697 145.75 30 145.75 31.4242C145.75 32.8485 144.702 33.8788 143.252 33.8788C141.803 33.8788 140.755 32.8485 140.755 31.4242C140.755 30 141.834 28.9697 143.252 28.9697Z" fill="#010202"/>
</svg>
