<svg width="84" height="48" viewBox="0 0 84 48" fill="none" xmlns="http://www.w3.org/2000/svg">
<path d="M72.7788 22.0187H68.5721V17.6645C68.5721 17.0839 68.2435 16.5805 67.7814 16.3101C67.5696 16.1943 67.318 16.117 67.0484 16.117H52.9433C52.5761 16.117 52.2295 16.2522 51.9586 16.466C51.7661 16.6011 51.5915 16.7763 51.4567 16.9887L46.6711 25.8902L42.3503 17.3928C42.2733 17.0632 42.0807 16.7542 41.8098 16.5418C41.3657 16.135 40.6904 16.0191 40.1115 16.2908C39.6288 16.5225 39.3208 16.9873 39.263 17.4907L34.7483 25.8902L30.2529 17.0273C30.0988 16.6784 29.8087 16.4274 29.5006 16.2922C29.2889 16.1957 29.0564 16.1184 28.8062 16.1184H17.4018C17.1323 16.1184 16.8806 16.1763 16.6689 16.3115C16.1862 16.5625 15.8781 17.0852 15.8781 17.6659V22.0201H11.6522C10.8037 22.0201 10.1285 22.6973 10.1285 23.5483C10.1285 24.3993 10.8037 25.0764 11.6522 25.0764H15.8589V29.2955C15.8589 30.1465 16.5341 30.8237 17.3826 30.8237C18.2311 30.8237 18.9063 30.1465 18.9063 29.2955V25.0764H26.181C27.0294 25.0764 27.7046 24.3993 27.7046 23.5483C27.7046 22.6973 27.0294 22.0201 26.181 22.0201H18.9063V19.1941H27.8986L33.2824 29.7796C33.3209 29.8761 33.3594 29.9727 33.4171 30.0499C33.8228 30.7271 34.6713 31.0181 35.4043 30.6499C35.8484 30.4375 36.1565 30.0113 36.2335 29.5658L40.7867 21.1084L45.1859 29.7782C45.2244 29.8748 45.2629 29.9713 45.3207 30.0485C45.7263 30.7257 46.5748 31.0168 47.3078 30.6485C47.752 30.4361 48.06 30.0099 48.137 29.5644L53.7134 19.172H65.4642V21.998H55.2769C54.4477 21.998 53.7917 22.6559 53.7532 23.4683V29.1962C53.7532 30.0472 54.4284 30.7244 55.2769 30.7244H66.5259C66.6799 30.7823 66.8545 30.7244 67.0278 30.7244C67.8763 30.7244 68.5515 30.0472 68.5515 29.1962V25.0544H72.7582C73.6067 25.0544 74.2819 24.3772 74.2819 23.5262C74.3039 22.7152 73.6094 22.0187 72.7788 22.0187ZM65.5055 27.6887H56.7841V25.0958H65.5055V27.6887Z" fill="white"/>
<path d="M67.0292 16.135C67.2987 16.135 67.5504 16.1929 67.7622 16.3281C68.2448 16.5791 68.5529 17.1018 68.5529 17.6825V22.0366H72.7595C73.608 22.0366 74.2832 22.7138 74.2832 23.5648C74.2832 24.4158 73.608 25.093 72.7595 25.093H68.5529V29.2348C68.5529 30.0858 67.8777 30.763 67.0292 30.763C66.8559 30.763 55.3168 30.763 55.3168 30.763C54.4683 30.763 53.7931 30.0858 53.7931 29.2348V23.4876C53.8316 22.6752 54.5068 22.0173 55.3168 22.0173H65.5041V19.1913H53.7532L48.1769 29.5837C48.0806 30.0485 47.7905 30.454 47.3477 30.6678C47.1359 30.7644 46.9035 30.8223 46.6917 30.8223C46.1705 30.8223 45.6493 30.552 45.3798 30.0678C45.322 29.9906 45.2835 29.8941 45.245 29.7975L40.8458 21.1277L36.3889 29.6044C36.1964 30.0499 35.9062 30.4554 35.462 30.6885C35.2502 30.785 35.0178 30.843 34.8061 30.843C34.2849 30.843 33.7637 30.5726 33.4941 30.0885C33.4364 30.0113 33.3979 29.9148 33.3594 29.8182L27.9756 19.2327H18.9833V22.0587H26.258C27.1064 22.0587 27.7817 22.7359 27.7817 23.5869C27.7817 24.4379 27.1064 25.1151 26.258 25.1151H18.9833V29.3341C18.9833 30.1851 18.3081 30.8623 17.4596 30.8623C16.6111 30.8623 15.9359 30.1851 15.9359 29.3341V25.1151H11.6522C10.8037 25.1151 10.1285 24.4379 10.1285 23.5869C10.1285 22.7359 10.8037 22.0587 11.6522 22.0587H15.8589V17.7045C15.8589 17.1239 16.1876 16.6205 16.6496 16.3501C16.8614 16.2343 17.113 16.157 17.3826 16.157H28.7855C29.0358 16.157 29.2682 16.215 29.48 16.3308C29.8087 16.466 30.0782 16.7184 30.2322 17.0659L34.7469 25.9481L39.2616 17.4714C39.4927 17.0066 39.6096 16.5818 40.1101 16.3487C40.3219 16.2522 40.5543 16.1943 40.7661 16.1943C41.1525 16.1943 41.5183 16.3294 41.7892 16.6011C42.0587 16.8135 42.1949 16.9694 42.3874 17.3363L46.6518 25.9481L51.4374 17.0466C51.553 16.8342 51.7262 16.6591 51.9394 16.5239C52.2089 16.3115 52.5376 16.175 52.924 16.175H67.0292M56.7841 27.6887H65.5055V25.0958H56.7841V27.6887ZM67.0292 13H52.924C51.9009 13 50.8984 13.3489 50.087 13.9682C49.5273 14.3558 49.0639 14.8771 48.7366 15.4578L48.6981 15.535L46.7495 19.1734C46.7495 19.1734 44.4914 14.7226 43.8162 14.1806C42.9677 13.4455 41.8868 13.0386 40.7674 13.0386C40.073 13.0386 39.3785 13.1931 38.7418 13.5034C37.5262 14.0841 36.8509 15.1681 36.2912 16.426L34.8253 19.1734L33.0307 15.6509C32.5673 14.702 31.7765 13.9282 30.8112 13.4841C30.1745 13.1738 29.48 13.0193 28.7855 13.0193H17.3826C16.6111 13.0193 15.8396 13.2124 15.163 13.5807C13.6586 14.393 12.7317 15.9805 12.7317 17.6838V18.9031H11.6508C9.08477 18.9031 7 20.9926 7 23.5676C7 26.1426 9.08339 28.2321 11.6508 28.2321H12.7317V29.3162C12.7317 31.8898 14.8151 33.9807 17.3826 33.9807C19.95 33.9807 22.0334 31.8912 22.0334 29.3162V28.2321H26.1631C27.0501 28.2321 27.8999 27.9811 28.6136 27.5356L30.4468 31.1354C30.543 31.3478 30.6393 31.5422 30.7562 31.7353C31.6046 33.1283 33.1105 33.9807 34.7304 33.9807C35.4249 33.9807 36.1194 33.8262 36.7561 33.5159C37.8947 32.9739 38.878 32.0456 39.3799 30.865L40.7111 27.9038L42.3709 31.1547C42.4672 31.3671 42.5634 31.5615 42.6789 31.7546C43.5274 33.1476 45.0332 34 46.6532 34C47.3477 34 48.0421 33.8455 48.6788 33.5352C49.7405 33.0125 50.5697 32.1036 50.9946 31.0195C51.6891 32.7228 53.3682 33.9228 55.3168 33.9228H67.0292C69.5953 33.9228 71.68 31.9105 71.68 29.3369V28.2528H72.7609C75.327 28.2528 77.4118 26.1633 77.4118 23.5883C77.4118 21.0146 75.3284 18.9238 72.7609 18.9238H71.68V17.7045C71.68 15.9819 70.7545 14.4151 69.2487 13.6013C68.5735 13.1931 67.8007 13 67.0292 13Z" fill="black"/>
</svg>
