<svg width="48" height="48" viewBox="0 0 48 48" fill="none" xmlns="http://www.w3.org/2000/svg">
<path fill-rule="evenodd" clip-rule="evenodd" d="M24.0132 8C15.1583 8 8 15.2111 8 24.1322C8 31.2633 12.5866 37.2997 18.9494 39.4362C19.7449 39.5968 20.0363 39.089 20.0363 38.6619C20.0363 38.2879 20.0101 37.006 20.0101 35.6703C15.5556 36.632 14.628 33.7472 14.628 33.7472C13.9121 31.8776 12.8514 31.3971 12.8514 31.3971C11.3935 30.4088 12.9576 30.4088 12.9576 30.4088C14.5749 30.5157 15.4235 32.0648 15.4235 32.0648C16.8549 34.5218 19.1615 33.8276 20.0894 33.4001C20.2218 32.3585 20.6463 31.6373 21.097 31.2368C17.5442 30.8628 13.8063 29.474 13.8063 23.2774C13.8063 21.5146 14.4421 20.0724 15.4497 18.9507C15.2908 18.5502 14.7339 16.8939 15.609 14.6772C15.609 14.6772 16.9611 14.2497 20.0098 16.3331C21.315 15.98 22.6611 15.8003 24.0132 15.7988C25.3653 15.7988 26.7436 15.986 28.0164 16.3331C31.0654 14.2497 32.4175 14.6772 32.4175 14.6772C33.2926 16.8939 32.7354 18.5502 32.5764 18.9507C33.6106 20.0724 34.2202 21.5146 34.2202 23.2774C34.2202 29.474 30.4823 30.8359 26.9029 31.2368C27.4864 31.7442 27.9898 32.7056 27.9898 34.2281C27.9898 36.3914 27.9636 38.1277 27.9636 38.6616C27.9636 39.089 28.2553 39.5968 29.0505 39.4365C35.4133 37.2994 39.9999 31.2633 39.9999 24.1322C40.0261 15.2111 32.8416 8 24.0132 8Z" fill="url(#paint0_linear_116_6)"/>
<defs>
<linearGradient id="paint0_linear_116_6" x1="24" y1="8" x2="24" y2="39.4668" gradientUnits="userSpaceOnUse">
<stop stop-color="#E864FF"/>
<stop offset="1" stop-color="#7000A7"/>
</linearGradient>
</defs>
</svg>
