<svg width="48" height="48" viewBox="0 0 48 48" fill="none" xmlns="http://www.w3.org/2000/svg">
<path fill-rule="evenodd" clip-rule="evenodd" d="M12.3333 39H35.6667C37.5076 39 39 37.5076 39 35.6667V12.3333C39 10.4924 37.5076 9 35.6667 9H12.3333C10.4924 9 9 10.4924 9 12.3333V35.6667C9 37.5076 10.4924 39 12.3333 39Z" fill="#007EBB"/>
<path fill-rule="evenodd" clip-rule="evenodd" d="M34.8333 34.8332H30.3815V27.2507C30.3815 25.1718 29.5915 24.0101 27.9461 24.0101C26.156 24.0101 25.2208 25.2191 25.2208 27.2507V34.8332H20.9305V20.3887H25.2208V22.3344C25.2208 22.3344 26.5108 19.9474 29.576 19.9474C32.6398 19.9474 34.8333 21.8184 34.8333 25.6878V34.8332ZM15.8122 18.4973C14.3508 18.4973 13.1666 17.3039 13.1666 15.8319C13.1666 14.36 14.3508 13.1665 15.8122 13.1665C17.2736 13.1665 18.457 14.36 18.457 15.8319C18.457 17.3039 17.2736 18.4973 15.8122 18.4973ZM13.5969 34.8332H18.0705V20.3887H13.5969V34.8332Z" fill="white"/>
</svg>
