<svg width="48" height="48" viewBox="0 0 48 48" fill="none" xmlns="http://www.w3.org/2000/svg">
<path d="M22.9521 8.00861C22.8833 8.01487 22.6643 8.03676 22.4673 8.0524C17.9222 8.46211 13.6649 10.9141 10.9685 14.6829C9.46706 16.7784 8.50674 19.1554 8.14389 21.6731C8.01564 22.5519 8 22.8115 8 24.0031C8 25.1947 8.01564 25.4543 8.14389 26.3332C9.01349 32.3413 13.2895 37.3892 19.089 39.2595C20.1275 39.5942 21.2223 39.8225 22.4673 39.9601C22.9521 40.0133 25.0479 40.0133 25.5327 39.9601C27.6817 39.7224 29.5022 39.1907 31.2978 38.2743C31.573 38.1336 31.6262 38.0961 31.5887 38.0648C31.5636 38.046 30.3906 36.4729 28.983 34.5713L26.4242 31.1153L23.218 26.3707C21.4538 23.7623 20.0023 21.6293 19.9898 21.6293C19.9773 21.6262 19.9648 23.7342 19.9586 26.3082C19.9492 30.815 19.946 30.9964 19.8897 31.1028C19.8084 31.256 19.7458 31.3186 19.6145 31.3874C19.5144 31.4374 19.4268 31.4468 18.9544 31.4468H18.4133L18.2694 31.3561C18.1756 31.2967 18.1067 31.2185 18.0598 31.1278L17.9941 30.9871L18.0004 24.7162L18.0098 18.4423L18.1067 18.3203C18.1568 18.2546 18.2631 18.1702 18.3382 18.1295C18.4665 18.067 18.5165 18.0607 19.0577 18.0607C19.6958 18.0607 19.8022 18.0857 19.9679 18.2671C20.0149 18.3172 21.7509 20.9318 23.828 24.0813C25.905 27.2308 28.7453 31.5313 30.1404 33.6424L32.6741 37.4799L32.8023 37.3955C33.9378 36.6574 35.139 35.6065 36.0899 34.5119C38.1138 32.188 39.4182 29.3544 39.8561 26.3332C39.9844 25.4543 40 25.1947 40 24.0031C40 22.8115 39.9844 22.5519 39.8561 21.6731C38.9865 15.665 34.7105 10.617 28.911 8.74672C27.8882 8.4152 26.7996 8.18688 25.5797 8.04927C25.2794 8.01799 23.2117 7.98359 22.9521 8.00861ZM29.5022 17.6854C29.6524 17.7605 29.7744 17.9043 29.8182 18.0544C29.8432 18.1358 29.8495 19.8747 29.8432 23.7936L29.8338 29.417L28.8422 27.897L27.8475 26.377V22.2892C27.8475 19.6464 27.86 18.1608 27.8788 18.0889C27.9288 17.9137 28.0383 17.7761 28.1885 17.6948C28.3167 17.6291 28.3636 17.6228 28.8547 17.6228C29.3177 17.6228 29.399 17.6291 29.5022 17.6854Z" fill="black"/>
</svg>
