<svg width="48" height="48" viewBox="0 0 48 48" fill="none" xmlns="http://www.w3.org/2000/svg">
<path d="M24 29.5813C32.2843 29.5813 39 27.0171 39 23.854C39 20.6909 32.2843 18.1267 24 18.1267C15.7157 18.1267 9 20.6909 9 23.854C9 27.0171 15.7157 29.5813 24 29.5813Z" stroke="#61DAFB"/>
<path d="M19.04 26.7177C23.1822 33.892 28.7607 38.4259 31.5 36.8444C34.2393 35.2629 33.1021 28.1648 28.96 20.9904C24.8178 13.816 19.2393 9.28209 16.5 10.8636C13.7607 12.4452 14.8979 19.5433 19.04 26.7177Z" stroke="#61DAFB"/>
<path d="M19.04 20.9904C14.8979 28.1648 13.7607 35.2629 16.5 36.8444C19.2393 38.426 24.8178 33.8921 28.96 26.7177C33.1021 19.5433 34.2393 12.4452 31.5 10.8637C28.7607 9.28212 23.1822 13.816 19.04 20.9904Z" stroke="#61DAFB"/>
<path d="M24 26.6495C25.5439 26.6495 26.7955 25.3979 26.7955 23.854C26.7955 22.3102 25.5439 21.0586 24 21.0586C22.4562 21.0586 21.2046 22.3102 21.2046 23.854C21.2046 25.3979 22.4562 26.6495 24 26.6495Z" fill="#61DAFB"/>
</svg>
