<svg width="48" height="48" viewBox="0 0 48 48" fill="none" xmlns="http://www.w3.org/2000/svg">
<path d="M34.4745 36C34.4745 34.6993 34.4745 33.5078 34.2766 30.9659C34.0317 28.4123 32.7022 27.118 30.428 26.6632C33.122 26.3134 35.1163 24.2146 35.1163 20.9963C35.1163 16.6936 32.2823 14 26.5793 14H16V18.4842H25.5297C28.0488 18.4842 29.3084 19.5653 29.3084 21.3493C29.3084 23.3783 28.0488 24.1446 25.5297 24.1446H16V28.7272H25.2498C27.2441 28.7272 28.3287 29.2868 28.5036 31.8056C28.6359 33.5257 28.6194 34.3776 28.6034 35.1946V35.198C28.5983 35.4597 28.5933 35.7179 28.5933 36H34.4745ZM16 32.5834V35.9995H23.4827V33.8132C23.4827 33.3538 23.2572 32.5834 22.2185 32.5834H16Z" fill="#373737"/>
</svg>
