<svg width="48" height="48" viewBox="0 0 48 48" fill="none" xmlns="http://www.w3.org/2000/svg">
<mask id="mask0_116_9" style="mask-type:luminance" maskUnits="userSpaceOnUse" x="7" y="14" width="34" height="21">
<path d="M7 14H41V34.4H7V14Z" fill="white"/>
</mask>
<g mask="url(#mask0_116_9)">
<path fill-rule="evenodd" clip-rule="evenodd" d="M24 14C19.4667 14 16.6333 16.2667 15.5 20.8C17.2 18.5333 19.1833 17.6833 21.45 18.25C22.7433 18.573 23.6676 19.5118 24.6907 20.55C26.3573 22.2419 28.2865 24.2 32.5 24.2C37.0333 24.2 39.8667 21.9333 41 17.4C39.3 19.6667 37.3167 20.5167 35.05 19.95C33.7567 19.627 32.8324 18.6882 31.8093 17.65C30.1427 15.9581 28.2135 14 24 14ZM15.5 24.2C10.9667 24.2 8.13333 26.4667 7 31C8.7 28.7333 10.6833 27.8833 12.95 28.45C14.2433 28.7736 15.1676 29.7118 16.1907 30.75C17.8573 32.4419 19.7865 34.4 24 34.4C28.5333 34.4 31.3667 32.1333 32.5 27.6C30.8 29.8667 28.8167 30.7167 26.55 30.15C25.2567 29.827 24.3324 28.8882 23.3093 27.85C21.6427 26.1581 19.7135 24.2 15.5 24.2Z" fill="#38BDF8"/>
</g>
</svg>
