<svg width="76" height="48" viewBox="0 0 76 48" fill="none" xmlns="http://www.w3.org/2000/svg">
<path d="M27.0323 29.7096L23.6379 20.4724H20.6095L17.243 29.7096L14.0746 20.4724H10L15.7428 35.6067H18.5732L22.1377 26.6156L25.6742 35.6067H28.5045L34.2473 20.4724H30.1748L27.0323 29.7096Z" fill="currentColor"/>
<path d="M40.6203 20.4724H36.8857V35.6067H40.6203V20.4724Z" fill="currentColor"/>
<path d="M48.3052 14.4189H44.5427V35.6066H48.3052V14.4189Z" fill="currentColor"/>
<path d="M38.7419 13.0004C38.4396 12.9947 38.1393 13.0547 37.8593 13.1768C37.5793 13.2988 37.3253 13.4803 37.1127 13.7103C36.9001 13.9403 36.7333 14.2141 36.6225 14.515C36.5116 14.8159 36.4589 15.1377 36.4676 15.4611C36.4676 16.11 36.7086 16.7323 37.1375 17.1912C37.5665 17.6501 38.1483 17.9078 38.7549 17.9078C39.3615 17.9078 39.9433 17.6501 40.3723 17.1912C40.8012 16.7323 41.0422 16.11 41.0422 15.4611C41.0454 15.137 40.9881 14.8154 40.8737 14.5153C40.7592 14.2152 40.5899 13.9426 40.3756 13.7134C40.1614 13.4842 39.9065 13.3031 39.626 13.1807C39.3455 13.0582 39.0449 12.9969 38.7419 13.0004Z" fill="currentColor"/>
<path d="M62.2732 14.4189V22.2161C61.6704 21.5396 60.9454 21.001 60.1422 20.6332C59.339 20.2654 58.4743 20.076 57.6006 20.0764H57.5026H57.2125H57.1845C57.0279 20.0827 56.8716 20.0977 56.7164 20.1213C56.1456 20.1956 55.5874 20.3555 55.0582 20.5964C54.2845 20.9497 53.5903 21.4757 53.0219 22.1391C52.4097 22.8649 51.9384 23.7137 51.6357 24.6362C51.2813 25.7252 51.1093 26.8726 51.1277 28.0255C51.1093 29.1785 51.2813 30.3259 51.6357 31.4149C51.9395 32.3401 52.4159 33.1896 53.0359 33.9119C53.6101 34.5782 54.3086 35.1082 55.0862 35.4675C55.8739 35.824 56.7213 36.0046 57.5766 35.9982H57.7326C57.8486 35.9982 57.9633 35.9925 58.0766 35.981H58.1166C59.6969 35.8463 61.1756 35.0946 62.2712 33.8691V35.613H66.0077V14.4296L62.2732 14.4189ZM61.3331 31.141C60.9656 31.5175 60.5317 31.812 60.0568 32.0075C59.5819 32.2029 59.0753 32.2953 58.5667 32.2793C58.0407 32.2843 57.5186 32.1819 57.0285 31.9776C56.5681 31.7863 56.1499 31.4949 55.8003 31.1217C55.4454 30.7376 55.1683 30.2795 54.9862 29.7758C54.5919 28.6537 54.5919 27.4166 54.9862 26.2945C55.1708 25.7919 55.45 25.3353 55.8063 24.9529C56.1562 24.58 56.5743 24.2886 57.0345 24.097C57.5247 23.8928 58.0467 23.7904 58.5727 23.7953C59.5976 23.7628 60.5926 24.1668 61.3391 24.9186C62.0792 25.6675 62.4492 26.7067 62.4492 28.0362C62.4492 29.3657 62.0772 30.4006 61.3331 31.141Z" fill="currentColor"/>
</svg>
