<svg xmlns="http://www.w3.org/2000/svg" viewBox="0 0 0 0"><defs><symbol id="arrow-back" fill="none" viewBox="0 0 48 48"><path fill="currentColor" fill-rule="evenodd" d="M25.414 8.586a2 2 0 0 1 0 2.828L12.828 24l12.586 12.586a2 2 0 1 1-2.828 2.828l-14-14a2 2 0 0 1 0-2.828l14-14a2 2 0 0 1 2.828 0" clip-rule="evenodd"/><path fill="currentColor" fill-rule="evenodd" d="M8 24a2 2 0 0 1 2-2h28a2 2 0 1 1 0 4H10a2 2 0 0 1-2-2" clip-rule="evenodd"/></symbol><symbol id="awwwards" fill="none" viewBox="0 0 156 48"><path fill="#010202" d="M11.524 22.818c.494-2.424 2.652-4.121 5.736-4.121 3.576 0 6.32 1.454 6.32 6.212v8.788h-3.02l-.37-1.879c-1.049 1.273-2.467 2.121-4.625 2.121-2.56 0-4.564-1.575-4.564-4.485 0-2.908 2.652-4.818 6.414-4.818h2.497v-.666c0-1.667-1.264-2.182-2.651-2.182-1.049 0-2.128.333-2.59 1.697zm4.872 8.03c1.696 0 3.454-1.12 3.454-3.03v-.273h-2.467c-1.603-.06-2.56.576-2.56 1.849.031.697.556 1.455 1.573 1.455m67.252-8.031c.493-2.424 2.652-4.121 5.735-4.121 3.577 0 6.321 1.454 6.321 6.212v8.788h-3.021l-.37-1.879c-1.049 1.273-2.467 2.121-4.626 2.121-2.56 0-4.563-1.575-4.563-4.485 0-2.908 2.651-4.818 6.413-4.818h2.498v-.666c0-1.667-1.264-2.182-2.652-2.182-1.048 0-2.127.333-2.59 1.697zm4.872 8.03c1.696 0 3.453-1.12 3.453-3.03v-.273h-2.466c-1.604 0-2.56.576-2.56 1.88.031.666.555 1.424 1.573 1.424m10.545 2.878V18.91h3.701v2.424c1.048-1.757 2.744-2.636 4.44-2.636.678 0 1.203.09 1.819.273l-.678 3.363c-.432-.272-.925-.424-1.542-.424-2.158 0-4.039 1.758-4.039 6.515v5.243zm17.854-15.03c1.542 0 2.991.758 3.669 1.576V13h3.701v20.758h-3.701v-1.516C120.157 33 118.8 34 116.919 34c-4.533 0-6.845-3.06-6.845-7.606 0-4.576 2.312-7.697 6.845-7.697m.524 12.152c1.912 0 3.454-1.576 3.454-4.485 0-2.94-1.542-4.485-3.454-4.485s-3.453 1.575-3.453 4.485c-.031 2.939 1.511 4.485 3.453 4.485m20.228-9.789-2.22 2a3.17 3.17 0 0 0-2.498-1.272c-.709 0-1.387.424-1.387 1.242 0 .667.524 1.121 1.449 1.424 2.066.758 5.427 1.364 5.427 4.546 0 2.697-2.066 4.91-5.334 4.91-3.115 0-5.242-2.183-5.982-3.97l2.929-1.576c.524 1.424 1.542 2.454 3.022 2.454 1.141 0 1.881-.515 1.881-1.606 0-1.242-1.912-1.515-3.762-2.273-1.634-.666-3.022-1.697-3.022-3.97 0-2.272 1.881-4.302 4.81-4.302 1.974-.03 3.762.97 4.687 2.394M60.552 18.94 57.9 29.09l-2.559-10.15h-3.453l-2.529 10.15-2.097-5.908-.246.727-1.203 3.788 1.912 6.03h3.3l2.59-9.545 2.59 9.545h3.268l4.81-14.788zm17.885 0-2.683 10.15-2.56-10.15h-3.453l-2.498 10.15-2.127-5.908-.247.727-1.202 3.788 1.942 6.03h3.269l2.59-9.545 2.59 9.545h3.269l4.84-14.788zm-32.007 0-4.81 14.757h-3.27l-2.59-9.546-2.59 9.607h-3.268L25.092 19h3.762l2.682 10.121L34.096 19h3.422l2.56 10.121L42.76 19zm96.822 10.03c1.45 0 2.498 1.03 2.498 2.454s-1.048 2.455-2.498 2.455c-1.449 0-2.497-1.03-2.497-2.455 0-1.424 1.079-2.454 2.497-2.454"/></symbol><symbol id="fwa" fill="none" viewBox="0 0 84 48"><path fill="#fff" d="M72.779 22.019h-4.207v-4.354a1.58 1.58 0 0 0-.79-1.355 1.53 1.53 0 0 0-.734-.193H52.943a1.6 1.6 0 0 0-.984.349c-.193.135-.367.31-.502.523L46.67 25.89l-4.32-8.497a1.54 1.54 0 0 0-.541-.851 1.55 1.55 0 0 0-1.699-.251c-.482.232-.79.696-.848 1.2l-4.515 8.4-4.495-8.864a1.46 1.46 0 0 0-.752-.735 1.7 1.7 0 0 0-.695-.174H17.402c-.27 0-.521.058-.733.194-.483.25-.79.773-.79 1.354v4.354h-4.227c-.848 0-1.523.677-1.523 1.528s.675 1.528 1.523 1.528h4.207v4.22c0 .85.675 1.528 1.524 1.528.848 0 1.523-.678 1.523-1.529v-4.219h7.275c.848 0 1.524-.677 1.524-1.528 0-.85-.676-1.528-1.524-1.528h-7.275v-2.826H27.9l5.383 10.586c.039.096.077.193.135.27.406.677 1.254.968 1.987.6.444-.212.752-.639.83-1.084l4.553-8.458 4.399 8.67c.038.097.077.193.135.27.405.678 1.254.969 1.987.6.444-.212.752-.638.829-1.084l5.576-10.392h11.751v2.826H55.277a1.53 1.53 0 0 0-1.524 1.47v5.728c0 .851.675 1.528 1.524 1.528h11.249c.154.058.329 0 .502 0 .848 0 1.523-.677 1.523-1.528v-4.142h4.207c.849 0 1.524-.677 1.524-1.528.022-.81-.673-1.507-1.503-1.507m-7.273 5.67h-8.722v-2.593h8.721z"/><path fill="#000" d="M67.03 16.135c.269 0 .52.058.732.193.483.251.79.774.79 1.355v4.354h4.207c.849 0 1.524.677 1.524 1.528 0 .85-.675 1.528-1.523 1.528h-4.207v4.142c0 .85-.675 1.528-1.524 1.528H55.317a1.517 1.517 0 0 1-1.524-1.528v-5.747c.039-.813.714-1.47 1.524-1.47h10.187V19.19h-11.75l-5.577 10.393c-.096.465-.386.87-.83 1.084a1.6 1.6 0 0 1-.655.154c-.522 0-1.043-.27-1.312-.754a1.2 1.2 0 0 1-.135-.27l-4.4-8.67-4.456 8.476c-.193.446-.483.851-.927 1.085a1.6 1.6 0 0 1-.656.154c-.521 0-1.042-.27-1.312-.755a1.2 1.2 0 0 1-.135-.27l-5.383-10.585h-8.993v2.826h7.275c.848 0 1.524.677 1.524 1.528 0 .85-.676 1.528-1.524 1.528h-7.275v4.22c0 .85-.675 1.527-1.523 1.527a1.517 1.517 0 0 1-1.524-1.528v-4.219h-4.284a1.517 1.517 0 0 1-1.523-1.528c0-.851.675-1.528 1.523-1.528h4.207v-4.355c0-.58.329-1.084.79-1.354.212-.116.464-.193.734-.193h11.403q.375 0 .694.174c.329.135.598.387.752.735l4.515 8.882 4.515-8.477c.23-.464.348-.89.848-1.122.212-.097.444-.155.656-.155.387 0 .752.135 1.023.407.27.213.406.368.598.735l4.265 8.612 4.785-8.901c.116-.213.29-.388.502-.523.27-.213.599-.349.985-.349h14.105M56.784 27.689h8.721v-2.593h-8.72zM67.03 13H52.924a4.7 4.7 0 0 0-2.837.968 4.5 4.5 0 0 0-1.35 1.49l-.039.077-1.949 3.638s-2.258-4.45-2.933-4.992a4.66 4.66 0 0 0-3.049-1.142c-.694 0-1.389.154-2.025.464-1.216.581-1.891 1.665-2.45 2.923l-1.467 2.747-1.794-3.522a4.64 4.64 0 0 0-2.22-2.167 4.6 4.6 0 0 0-2.026-.465H17.383c-.772 0-1.543.193-2.22.562a4.66 4.66 0 0 0-2.431 4.103v1.22H11.65C9.085 18.903 7 20.992 7 23.567a4.66 4.66 0 0 0 4.65 4.664h1.082v1.084c0 2.574 2.083 4.665 4.65 4.665a4.66 4.66 0 0 0 4.651-4.665v-1.084h4.13c.887 0 1.737-.25 2.45-.696l1.834 3.6c.096.212.192.406.31.6a4.66 4.66 0 0 0 3.973 2.245c.695 0 1.39-.155 2.026-.465 1.139-.542 2.122-1.47 2.624-2.651l1.331-2.961 1.66 3.25A4.66 4.66 0 0 0 46.653 34c.695.001 1.39-.154 2.026-.464a4.75 4.75 0 0 0 2.316-2.515 4.67 4.67 0 0 0 4.322 2.903h11.712c2.566 0 4.651-2.013 4.651-4.586v-1.084h1.08a4.66 4.66 0 0 0 4.652-4.665c0-2.573-2.084-4.664-4.651-4.664H71.68v-1.22c0-1.722-.926-3.289-2.431-4.103a4.3 4.3 0 0 0-2.22-.601"/></symbol><symbol id="github" fill="none" viewBox="0 0 48 48"><path fill="currentColor" fill-rule="evenodd" d="M24.013 8C15.158 8 8 15.211 8 24.132c0 7.131 4.587 13.168 10.95 15.304.795.16 1.086-.347 1.086-.774 0-.374-.026-1.656-.026-2.992-4.454.962-5.382-1.923-5.382-1.923-.716-1.87-1.777-2.35-1.777-2.35-1.458-.988.107-.988.107-.988 1.617.107 2.466 1.656 2.466 1.656 1.43 2.457 3.738 1.763 4.665 1.335.133-1.041.557-1.763 1.008-2.163-3.553-.374-7.29-1.763-7.29-7.96 0-1.762.635-3.205 1.643-4.326-.16-.4-.716-2.057.159-4.274 0 0 1.352-.427 4.4 1.656a15.4 15.4 0 0 1 4.004-.534c1.352 0 2.73.187 4.003.534 3.05-2.083 4.401-1.656 4.401-1.656.876 2.217.318 3.873.16 4.274 1.034 1.121 1.643 2.564 1.643 4.326 0 6.197-3.738 7.559-7.317 7.96.583.507 1.087 1.469 1.087 2.991 0 2.163-.026 3.9-.026 4.434 0 .427.291.935 1.087.775C35.413 37.299 40 31.263 40 24.132 40.026 15.212 32.842 8 24.013 8" clip-rule="evenodd"/></symbol><symbol id="linkedin" fill="none" viewBox="0 0 48 48"><path fill="#007EBB" fill-rule="evenodd" d="M12.333 39h23.334A3.333 3.333 0 0 0 39 35.667V12.333A3.333 3.333 0 0 0 35.667 9H12.333A3.333 3.333 0 0 0 9 12.333v23.334A3.333 3.333 0 0 0 12.333 39" clip-rule="evenodd"/><path fill="#fff" fill-rule="evenodd" d="M34.833 34.833h-4.451v-7.582c0-2.08-.79-3.24-2.436-3.24-1.79 0-2.725 1.208-2.725 3.24v7.582h-4.29V20.39h4.29v1.945s1.29-2.387 4.355-2.387c3.064 0 5.257 1.871 5.257 5.74zm-19.02-16.336a2.655 2.655 0 0 1-2.646-2.665 2.655 2.655 0 0 1 2.645-2.666 2.655 2.655 0 0 1 2.645 2.666 2.655 2.655 0 0 1-2.645 2.665m-2.216 16.336h4.474V20.39h-4.474z" clip-rule="evenodd"/></symbol><symbol id="motion" fill="none" viewBox="0 0 48 48"><path fill="#F08" d="M11 37V11l13 13z"/><path fill="#91F" d="M37 11v13L24 37l-6.5-6.5z"/><path fill="#09F" d="M37 24v13l-6.5-6.5z"/></symbol><symbol id="next" fill="none" viewBox="0 0 48 48"><path fill="#000" d="M22.952 8.009c-.069.006-.288.028-.485.043-4.545.41-8.802 2.862-11.498 6.63a15.84 15.84 0 0 0-2.825 6.991c-.128.879-.144 1.139-.144 2.33s.016 1.451.144 2.33c.87 6.008 5.146 11.056 10.945 12.927 1.039.334 2.133.563 3.378.7.485.053 2.58.053 3.066 0 2.149-.238 3.97-.77 5.765-1.686.275-.14.328-.178.29-.21-.024-.018-1.197-1.591-2.605-3.493l-2.559-3.456-3.206-4.744c-1.764-2.609-3.216-4.742-3.228-4.742-.013-.003-.025 2.105-.031 4.68-.01 4.506-.013 4.687-.07 4.794a.57.57 0 0 1-.274.284c-.1.05-.188.06-.66.06h-.542l-.144-.09a.6.6 0 0 1-.21-.23l-.065-.14.006-6.27.01-6.275.097-.122a.9.9 0 0 1 .231-.19c.128-.063.178-.07.72-.07.638 0 .744.026.91.207.047.05 1.783 2.665 3.86 5.814s4.917 7.45 6.312 9.561l2.534 3.838.128-.084c1.136-.739 2.337-1.79 3.288-2.884a15.93 15.93 0 0 0 3.766-8.179c.128-.879.144-1.138.144-2.33s-.016-1.451-.144-2.33c-.87-6.008-5.145-11.056-10.945-12.926a16.8 16.8 0 0 0-3.331-.698c-.3-.031-2.368-.065-2.628-.04m6.55 9.676c.15.076.272.22.316.37.025.08.031 1.82.025 5.739l-.01 5.623-.99-1.52-.995-1.52v-4.088c0-2.643.012-4.128.03-4.2a.64.64 0 0 1 .31-.394c.129-.066.176-.072.667-.072.463 0 .544.006.647.062"/></symbol><symbol id="quote" fill="none" viewBox="0 0 48 48"><path fill="currentColor" d="m15.6 9 5.1 4.1c.4.3.4.8 0 1a20.8 20.8 0 0 0-4.9 7.2c-.2.4.2.9.6.9H22c.4 0 .7.3.7.7v14.4c0 .4-.3.7-.7.7H7a.7.7 0 0 1-.6-.6c-.7-5.2-1.5-17.8 6.6-26 .7-.9 1.6-1.7 2.6-2.4M35 9l5 4.1c.4.3.4.8.1 1a20.8 20.8 0 0 0-5 7.2c-.1.4.2.9.7.9h5.6c.3 0 .6.3.6.7v14.4c0 .4-.3.7-.6.7h-15a.7.7 0 0 1-.6-.6c-.7-5.2-1.6-17.8 6.5-26.1.8-.8 1.7-1.6 2.7-2.3"/></symbol><symbol id="react" fill="none" viewBox="0 0 48 48"><path stroke="#61DAFB" d="M24 29.581c8.284 0 15-2.564 15-5.727s-6.716-5.727-15-5.727S9 20.69 9 23.854s6.716 5.727 15 5.727Z"/><path stroke="#61DAFB" d="M19.04 26.718c4.142 7.174 9.72 11.708 12.46 10.126 2.74-1.581 1.602-8.68-2.54-15.854S19.24 9.282 16.5 10.864c-2.74 1.581-1.602 8.68 2.54 15.854Z"/><path stroke="#61DAFB" d="M19.04 20.99c-4.142 7.175-5.28 14.273-2.54 15.854 2.74 1.582 8.318-2.952 12.46-10.126 4.142-7.175 5.28-14.273 2.54-15.854-2.74-1.582-8.318 2.952-12.46 10.126Z"/><path fill="#61DAFB" d="M24 26.65a2.796 2.796 0 1 0 0-5.592 2.796 2.796 0 0 0 0 5.592"/></symbol><symbol id="remix" fill="none" viewBox="0 0 48 48"><path fill="#373737" d="M34.475 36c0-1.3 0-2.492-.198-5.034-.245-2.554-1.575-3.848-3.849-4.303 2.694-.35 4.688-2.448 4.688-5.667 0-4.302-2.834-6.996-8.537-6.996H16v4.484h9.53c2.519 0 3.778 1.081 3.778 2.865 0 2.03-1.26 2.796-3.778 2.796H16v4.582h9.25c1.994 0 3.079.56 3.254 3.079.132 1.72.115 2.572.1 3.389v.003c-.006.262-.01.52-.01.802zM16 32.583V36h7.483v-2.186c0-.46-.226-1.23-1.265-1.23z"/></symbol><symbol id="tailwind" fill="none" viewBox="0 0 48 48"><mask id="mask0_116_9" width="34" height="21" x="7" y="14" maskUnits="userSpaceOnUse" style="mask-type:luminance"><path fill="#fff" d="M7 14h34v20.4H7z"/></mask><g mask="url(#mask0_116_9)"><path fill="#38BDF8" fill-rule="evenodd" d="M24 14q-6.8 0-8.5 6.8 2.55-3.4 5.95-2.55c1.293.323 2.218 1.262 3.24 2.3 1.667 1.692 3.596 3.65 7.81 3.65q6.8 0 8.5-6.8-2.55 3.4-5.95 2.55c-1.293-.323-2.218-1.262-3.24-2.3C30.142 15.958 28.213 14 24 14m-8.5 10.2Q8.7 24.2 7 31q2.55-3.4 5.95-2.55c1.293.324 2.218 1.262 3.24 2.3 1.667 1.692 3.596 3.65 7.81 3.65q6.8 0 8.5-6.8-2.55 3.4-5.95 2.55c-1.293-.323-2.218-1.262-3.24-2.3-1.667-1.692-3.596-3.65-7.81-3.65" clip-rule="evenodd"/></g></symbol><symbol id="wild" fill="none" viewBox="0 0 76 48"><path fill="currentColor" d="m27.032 29.71-3.394-9.238h-3.029l-3.366 9.238-3.168-9.238H10l5.743 15.135h2.83l3.565-8.991 3.536 8.99h2.83l5.743-15.134h-4.072zm13.588-9.238h-3.734v15.135h3.734zm7.685-6.053h-3.762v21.188h3.762zM38.742 13a2.1 2.1 0 0 0-.883.177c-.28.122-.534.303-.746.533-.213.23-.38.504-.49.805-.111.3-.164.623-.155.946 0 .649.24 1.271.67 1.73.428.46 1.01.717 1.617.717.606 0 1.188-.258 1.617-.717s.67-1.081.67-1.73a2.6 2.6 0 0 0-.168-.946 2.5 2.5 0 0 0-.498-.802 2.3 2.3 0 0 0-.75-.532 2.15 2.15 0 0 0-.884-.18m23.531 1.418v7.797a6.5 6.5 0 0 0-2.13-1.583 6.1 6.1 0 0 0-2.542-.557h-.417a4 4 0 0 0-.468.045 5.8 5.8 0 0 0-1.658.475 5.9 5.9 0 0 0-2.036 1.543 7.5 7.5 0 0 0-1.386 2.497 10.4 10.4 0 0 0-.508 3.39c-.019 1.152.153 2.3.508 3.389.303.925.78 1.775 1.4 2.497a6.1 6.1 0 0 0 2.05 1.556 5.9 5.9 0 0 0 2.49.53h.157q.173 0 .344-.017h.04c1.58-.135 3.059-.886 4.154-2.112v1.744h3.737V14.43zm-.94 16.722a3.8 3.8 0 0 1-1.276.867 3.6 3.6 0 0 1-1.49.271 3.9 3.9 0 0 1-1.538-.301 3.55 3.55 0 0 1-1.229-.856 4 4 0 0 1-.814-1.346 5.27 5.27 0 0 1 0-3.482c.185-.502.464-.959.82-1.341.35-.373.768-.664 1.229-.856a3.9 3.9 0 0 1 1.538-.302 3.73 3.73 0 0 1 2.766 1.124q1.11 1.124 1.11 3.117 0 1.995-1.116 3.105"/></symbol></defs></svg>