<svg xmlns="http://www.w3.org/2000/svg" fill="none" viewBox="0 0 600 844"><path fill="#fff" d="m489.715 70.593 92.404 10.539c4.287.482 7.522 4.1 7.526 8.388l3.519 648.984-1.038 88.293c.064 5.129-4.646 8.886-9.765 8.235l-222.142-33.619c-3.162-.399-5.707-2.682-6.786-5.663l-34.303-87.528c-2.376-6.557-13.425-7.557-17.243-1.701l-36.832 43.989c-.831 1.272-2.112 2.148-3.487 2.828l-67.248 29.666c-1.909.945-4.138.879-6.18.289l-90.268-30.401c-1.061-.311-1.98-.936-2.85-1.621L11.48 679.026c-4.832-3.842-3.471-11.287 2.045-14.056l65.092-29.454c1.36-.679 2.624-1.573 3.439-2.845l47.085-66.921c.591-.913 1.11-1.886 1.309-2.941l26.682-119.643a8.444 8.444 0 0 0-1.348-6.343l-75.44-108.602a8.52 8.52 0 0 1-1.265-2.862l-24.193-101.73c-.36-1.581-.299-3.217.252-4.745l20.317-57.419c.865-2.421 2.762-4.338 5.193-5.177l47.502-16.55c2.593-.889 5.483-.511 7.716 1.08l71.297 49.3c3.892 2.769 9.319 1.784 11.989-2.164l25.27-36.243c1.55-2.316 4.174-3.669 6.973-3.703l53.302-.537a8.58 8.58 0 0 0 3.231-.687l177.465-75.556a8.611 8.611 0 0 1 4.322-.635Z"/><path fill="#77C93E" d="m138.8 179.582 95.423 72.446-11.446 184.965c-26.912-18.524-88.344-73.548-118.775-145.45-38.038-89.878 2.048-123.068 11.472-123.213 7.539-.116 18.648 7.647 23.326 11.252Z"/><path fill="url(#a)" d="M88.842 209.931c-2.7 19.284.098 46.005 15.176 81.634 30.428 71.896 91.862 126.915 118.775 145.437l5.697-91.9-15.901-19.688c-6.976 18.169-23.617 51.851-34.377 41.235-65.782-60.097-84.092-112.516-89.307-156.726l-.063.008Z"/><path fill="#7DBFEB" d="M148.085 606.561c38.549-56.308 46.675-163.313 45.419-210.644-.837-31.567 9.181-75.413 24.419-104.855 15.237-29.443 25.054 73.091 26.973 117.702l59.779 181.302c-6.854 107.1-91.001 162.481-128.802 159.45-27.625-2.214-50.946-16.527-64.723-27.254-1.896-1.477-1.835-4.329-.021-5.903 5.261-4.563 12.545-11.955 17.182-19.959.523-.903-.74-1.824-1.573-1.189-9.848 7.499-25.136 11.169-33.431 12.294a3.617 3.617 0 0 1-2.63-.688l-43.174-31.711c-2.302-1.691-.875-5.803 1.979-6 23.997-1.655 65.49-14.178 98.603-62.545Z"/><path fill="#D1E5F1" d="M204.311 409.84c5.496 51.006-3.12 159.784-46.84 212.399-43.631 52.509-77.955 55.917-105.888 56.012l-4.147-3.046c-2.301-1.691-.874-5.802 1.98-5.999 23.997-1.655 65.493-14.178 98.608-62.544 38.551-56.307 46.681-163.308 45.426-210.638l7.854 1.963 3.007 11.853Z"/><path fill="#D1E5F1" d="M215.269 324.838c-3.174 9.722-9.084 43.771-10.316 102.947-.463 22.22-5.475 22.014-12.434 10.054 1.029-16.598 1.189-30.893.885-42.078-.857-31.581 9.131-75.447 24.344-104.905 5.641-10.922 10.547-3.694 14.589 12.001l-17.068 21.981Z"/><path fill="#3BAEF3" d="M242.915 387.932a770.51 770.51 0 0 1 1.661 20.295l22.513 60.357c-34.637-16.604-67.637-32.058-69.613-31.747-.925.146-2.531.476-4.471.902.604-16.218.423-30.161-.131-41.116a154.926 154.926 0 0 1-.148-10.878c.4-2.94.775-5.879 1.127-8.808 4.492-1.97 10.808-4.201 13.751-3.661 2.898.532 20.549 8.135 35.311 14.656Z"/><path fill="#2795EE" d="M302.814 608.822c-.45 2.932-.957 5.82-1.517 8.665-42.285-23.356-111.533-61.139-114.48-60.829-2.574.271-10.407 1.678-16.1 2.739 6.866-19.841 11.681-40.689 15.38-61.974 4.307-1.788 10.794-3.974 13.96-3.224 3.814.902 33.071 15.641 47.223 22.897l55.534 91.726ZM151.2 602.267a145.058 145.058 0 0 1-2.907 4.412c-10.906 15.896-22.041 26.982-33.996 36.124 8.652 2.777 19.958 6.203 22.947 6.364 3.592.193 66.413 46.623 102.482 73.628 14.144-11.548 28.573-27.639 39.673-46.743-38.419-24.506-109.027-69.561-111.627-71.292-2.386-1.587-11.117-2.283-16.572-2.493Z"/><path fill="#3BAEF3" d="M150.851 602.662a144.23 144.23 0 0 1-2.672 4.041c-10.904 15.897-22.038 26.983-33.991 36.126 5.867 1.883 12.956 4.066 17.842 5.327 8.396-7.072 16.52-14.984 25.597-25.889 4.163-5.001 8.034-10.515 11.629-16.444-.865-.558-1.411-.911-1.6-1.037-2.386-1.587-11.116-2.285-16.57-2.495l-.235.371ZM170.641 559.46c6.851-19.852 11.651-40.713 15.337-62.01 4.303-1.789 10.784-3.975 13.948-3.224.496.118 1.419.468 2.684 1.006-2.7 21.014-6.694 42.194-12.967 62.551-1.606-.719-2.612-1.091-2.916-1.06-2.571.271-10.398 1.677-16.086 2.737Z"/><path fill="#78C93C" d="M344.51 163.301c55.339-20.918 101.709-54.866 164.454-55.619 36.173-.435 69.246 8.985 78.902 13.778l1.002 80.704-55.13 118.903 58.133 123.078 2.002 161.279c-11.122 15.334-59.975 55.703-123.253 56.463-203.587 2.445-260.402-141.717-262.263-291.679-1.861-149.963 45.113-179.538 65.926-188 20.813-8.46 30.238-3.1 70.227-18.907Z"/><path fill="url(#b)" d="M517.24 284.24c1.409 120.975-81.372 258.025-200.201 268.99-40.487 3.736-68.134-15.999-86.553-44.633 31.66 89.123 102.152 154.785 240.064 153.229 53.464-.604 96.651-29.487 115.462-47.664l4.12-8.122-61.018-300.677s-13.2-134.973-11.874-21.123Z"/><path fill="url(#c)" d="M454.731 116.14c26.182 20.46 60.87 53.587 62.25 167.495 1.466 121.036 11.879 21.135 11.879 21.135l59.356-150.008-.407-33.584c-9.648-4.801-42.693-14.249-78.84-13.847-19.394.216-37.224 3.608-54.238 8.809Z"/><path fill="#9EDF4A" d="M326.157 483.644c18.594-2.936 21.594-2.342 21.991 2.475.541 6.567-4.189 19.862-18.362 21.197-21.058 1.985-25.307-9.083-26.723-12.775l-.018-.045c-1.4-3.646 4.518-7.916 23.112-10.852ZM254.872 496.993c14.981-2.835 17.404-2.223 17.751 2.597.472 6.569-1.195 19.405-12.498 19.719-17.043 1.877-22.688-7.937-23.837-11.591-1.149-3.654 3.602-7.891 18.584-10.725ZM296.065 531.522c15.095-2.165 17.487-1.448 17.615 3.383.176 6.583-2.067 19.333-13.373 19.144-17.111 1.118-22.307-8.936-23.291-12.638-.983-3.701 3.955-7.724 19.049-9.889Z"/><path fill="url(#d)" d="M267.239 432.994c4.767 34.745 38.453 31.379 38.082 2.598-.33-25.551-.127-39.372.568-51.467l-43.401-4.146c-.215 16.306 2.905 39.567 4.751 53.015Z"/><path fill="#9EDF4A" d="M210.633 417.816c-1.559-15.69-2.379-31.616-2.574-47.608-1.474-120.949 28.834-163.566 51.536-179.962 5.373-1.557 4.376 2.864 2.985 9.024-.788 3.489-1.701 7.537-1.654 11.372.131 10.756 6.019 26.958 28.5 26.685 20.483-.249 57.983-39.47 85.713-68.473 16.267-17.013 29.172-30.511 33.308-30.561 9.059-.11 9.232 14.08 9.304 19.968.058 4.711-.394 6.575-.627 6.917 7.342-4.931 23.099-14.806 27.396-14.858 5.373-.065 9.106 5.156 9.326 23.192.052 4.275-1.339 9.703-2.04 11.883 13.273 9.386 39.922 36.542 40.33 70.071.354 29.038-.49 58.69-7.075 86.915-6.333 24.33-36.306 62.121-94.452 62.828-56.639.689-84.743-30.708-87.657-71.99-23.138.281-36.456 17.01-40.223 25.339-3.883 23.302-17.01 69.97-38.461 70.231-5.463.066-10.054-4.394-13.635-10.973Z"/><path fill="#fff" d="M208.433 385.365a589.12 589.12 0 0 1-.377-14.883c-.365-28.211.999-52.165 3.591-72.52 5.252-26.004 13.636-46.594 23.387-46.711 19.269-.232 26.723 11.235 27.23 50.427.506 39.192-13.418 101.598-40.77 101.928-6.393.077-10.625-7.043-13.061-18.241ZM455.425 273.394c-.356-28.816-16.059-72.523-61.989-71.97-76.565.922-68.767 95.212-68.513 115.805.254 20.593 18.12 57.093 64.05 56.54 45.929-.553 67.106-47.374 66.819-70.608l-.367-29.767Z"/><path fill="#18435D" d="M255.278 287.472c-.129-9.915-2.695-26.997-11.289-26.893l-1.893.023c-2.083.025-3.743 1.743-3.779 3.816-.335 18.488-5.044 26.178-9.309 28.694-2.022 1.193-4.287 3.1-4.257 5.44l.399 30.703c.225 17.304 5.577 23.267 10.85 23.203 5.274-.063 10.663-6.351 14.953-21.959 4.291-15.608 4.453-33.111 4.325-43.027Z"/><path fill="#30739B" d="M242.249 320.007c3 .27 5.316 4.196 5.173 8.771-.072 2.305-.545 5.512-1.841 8.426-1.43 3.215-3.875 6.016-7.355 6.348-2.996.286-5.602-3.191-5.823-7.764-.199-4.14 1.624-7.76 4.193-8.621.347-4.257 2.795-7.416 5.653-7.16Z"/><path fill="#18435D" d="M390.712 268.662c.795-20.15-8.516-38.789-26.317-38.576l-.923.011c-1.666.02-3.085 1.134-3.422 2.757-.622 2.994-1.712 8.665-3.417 18.507-2.143 12.373-11.658 15.33-18.534 15.257-2.171-.023-4.23 1.396-4.493 3.538-.692 5.647-1.603 14.664-1.926 23.52-.52 14.244 2.242 39.559 29.467 39.233 21.78-.261 27.432-20.932 27.535-31.235.412-4.287 1.394-16.893 2.03-33.012Z"/><path fill="#30739B" d="M371.123 296.318c5.465.296 9.653 4.937 9.356 10.367-.15 2.736-1.041 6.547-3.427 10.016-2.632 3.827-7.111 7.17-13.458 7.591-5.461.364-10.183-3.742-10.547-9.168-.33-4.911 3.024-9.222 7.712-10.264.668-5.055 5.156-8.824 10.364-8.542Z"/><path fill="#907E34" d="m303.529 334.403 2.121 58.532c.585 9.88-2.568 28.271-19.792 28.477-17.224.207-24.233-15.706-25.594-24.398l2.234-57.795 29-4.442 12.031-.374Z"/><path fill="#4A3A06" d="m262.734 339.217-.177 58.301 8.514 9.291 14.559-.175 9.668-13.422-.744-58.471-3.077.037-28.743 4.439Z"/><path fill="#ECA4FE" d="M295.149 353.152c-11.172 3.174-29.209 19.328-32.267 43.776l7.718 10.12 13.672-.152 8.606-7.923 3.557-14.43-1.286-31.391Z"/><path fill="#958BF9" d="M295.148 353.135c-7.28 2.065-17.83 9.63-25.183 22.591 3.18-2.019 7.797-2.712 11.65-.218 8.414 5.447 9.816 13.369 8.108 25.03-.086.588-.102 1.046-.053 1.386l3.216-2.961 3.554-14.447-1.292-31.381Z"/><path fill="#E29435" d="m292.928 377.278-.576-45.271 5.415 1.287.7 55.025c.118 9.307-3.898 26.307-19.172 26.49-15.272.183-19.406-15.627-19.513-24.072-.086-6.757.942-38.077 1.494-50.811l2.95-.035.501 39.538c.13 10.236-.331 27.034 13.283 26.871 13.612-.164 15.075-16.64 14.918-29.022Z"/><path fill="#907E34" d="m264.332 350.523-3.512.171c.194-4.77.244-7.303.392-10.753l2.95-.036.17 10.618Z"/><path fill="#4A3A06" d="m260.484 339.302-15.772-15.228-1.345-6.206 4.071-2.368 9.122 1.8 39.891 17.151-31.803 5.571-4.164-.72Z"/><path fill="#F5C443" d="M240.643 313.478c2.062-5.106 14.696-17.24 35.205-15.649 19.236 1.49 26.811 25.246 28.151 36.751l-12.582.157c-17.993-12.348-36.81-18.06-39.704-18.438-.956-.125-6.918-.446-7.653 2.452-1.195 4.717 13.177 17.773 20.574 21.256l-5.403.068c-12.057-9.17-20.849-20.997-18.588-26.597Z"/><path fill="#93A341" d="m304.016 334.505.008.071-12.585.162c-11.23-5.723-21.626-13.989-37.692-17.347-2.996-.626-8.117-.487-8.704 1.63-1.2 4.33 12.205 17.517 19.604 20.997l-5.406.069c-11.178-7.49-18.807-19.195-18.469-21.916.939-3.569 4.632-3.826 9.002-3.985 14.586-.529 34.687 11.283 42.496 14.939l11.746 5.38Z"/><path fill="#fff" d="M227.626 17.263 247.741 2.89c4.178-2.985 10.029-1.611 12.443 2.923l27.352 51.376a8.503 8.503 0 0 1-2.81 11.086l-8.034 5.317a8.498 8.498 0 0 1-10.91-1.296l-39.433-42.32c-3.498-3.755-2.897-9.73 1.277-12.713ZM308.793 39l23.372-4.725c5.083-1.027 9.895 2.696 10.175 7.875l1.666 22.762a8.502 8.502 0 0 1-7.103 8.847l-14.995 3.281a8.502 8.502 0 0 1-9.211-5.065l-10.044-21.318c-2.104-4.953.865-10.59 6.14-11.656ZM99.705 458.619l-6.03-23.071c-1.313-5.017 2.135-10.029 7.29-10.6l19.631-1.114a8.502 8.502 0 0 1 9.232 6.595l3.988 15.791a8.504 8.504 0 0 1-4.54 9.482l-17.588 8.394c-4.827 2.378-10.622-.27-11.983-5.477Z"/><path fill="#56AF13" d="M417.741 437.046c3.993-.05 8.111.038 10.716.135l.312.012 34.211 3.436 63.019 5.881-1.855 19.612-63.089-5.888-33.654-3.38c-2.36-.083-5.969-.155-9.41-.112a95.992 95.992 0 0 0-4.847.167c-.687.045-1.249.096-1.686.148a8.819 8.819 0 0 0-.61.088c-.821.194-4.226 1.387-7 4.601-2.453 2.842-5.289 8.249-3.94 18.728.56 4.354 3.617 11.742 10.453 21.592 6.653 9.588 16.297 20.669 28.781 32.293 2.025 1.887 3.913 3.656 5.694 5.325 9.068 8.498 15.373 14.407 23.189 20.111 9.202 6.714 20.686 13.247 41.233 22.668l-8.306 17.887c-21.097-9.675-33.928-16.848-44.658-24.677-8.88-6.479-16.195-13.341-25.272-21.855-1.739-1.631-3.542-3.323-5.434-5.084-13.293-12.377-23.93-24.511-31.546-35.485-7.433-10.712-12.632-21.234-13.796-30.274-1.988-15.441 2.095-26.568 8.558-34.054 6.141-7.115 13.649-10.044 17.485-10.945 3.114-.731 7.879-.885 11.452-.93Z"/><path fill="#7DBFEB" d="M551.115 338.511c-36.766 21.459-116.231 78.427-139.835 134.417a8460.83 8460.83 0 0 1-5.145 12.171c-27.268 64.429-49.669 118.331-48.468 183.033.974 52.487 14.744 88.15 22.385 101.109.661 1.121 1.691 1.904 2.937 2.296 21.8 6.846 58.177 16.377 95.573 22.235-3.932-9.242-8.482-25.244-7.851-44.18.061-1.833 2.426-2.38 3.352-.795 8.727 14.941 21.493 35.583 34.926 48.808 17.495 1.607 34.393 2.003 49.255.514 4.408-.442 6.278-5.621 3.46-9.025-30.208-36.483-71.857-104.463-68.797-148.677 3.289-47.538 24.743-150.004 69.516-189.03 35.819-31.221 7.386-88.259-11.308-112.876Z"/><path fill="#D1E5F1" d="M556.504 348.953c-54.195 31.564-168.857 137.179-181.785 267.735-10.872 83.433 9.341 135.242 23.245 159.329a544.797 544.797 0 0 1-14.999-4.458c-1.245-.392-2.276-1.175-2.937-2.296-7.641-12.96-21.412-48.623-22.388-101.112-1.203-64.705 21.194-118.609 48.459-183.04 1.699-4.012 3.415-8.068 5.144-12.171 23.601-55.992 103.061-112.962 139.825-134.422 1.094 1.44 2.22 2.991 3.366 4.641l2.07 5.794Z"/><path fill="#2795EE" d="M499.664 681.585c-42.938-9.611-119.876-26.052-125.478-24.084-4.209 1.48-11.125 7.28-16.484 12.277.446 19.857 2.768 37.378 5.841 51.985 3.037-2.856 9.375-6.489 18.628-5.694 10.633.915 97.226 14.284 143.858 21.581-10.75-18.183-20.316-37.585-26.365-56.065ZM564.435 449.345c-25.517-35.867-53.211-59.855-70.157-71.693-23.212 18.347-47.192 40.499-64.529 63.666l53.261 56.993c12.775 2.471 28.596 4.577 43.725 5.035 9.689-21.225 21.5-39.808 35.634-52.107a54.032 54.032 0 0 0 2.066-1.894Z"/><path fill="#3BAEF3" d="M494.204 377.669c-.856.676-1.713 1.358-2.57 2.044-22.375 17.916-45.212 39.267-61.904 61.556a2.907 2.907 0 0 1-.05.067l12.898 13.798c20.28-26.927 42.567-50.18 63.376-68.584-4.288-3.467-8.26-6.443-11.75-8.881Z"/><path fill="#2795EE" d="M505.467 566.361c-39.487-13.201-100.743-32.784-107.393-31.285-4.011.904-9.714 3.654-14.994 6.608-9.338 24.684-16.872 48.774-21.31 73.577 6.097-1.258 15.396-2.869 20.308-2.628 6.583.323 84.51 14.95 111.234 22.46 1.647-18.269 5.611-42.918 12.155-68.732Z"/><path fill="#3BAEF3" d="M371.63 658.686c-.279 21.981 1.725 41.206 4.909 57.547-6.231.693-10.639 3.404-13.009 5.642-3.084-14.632-5.423-32.174-5.89-52.062 4.4-4.117 9.856-8.782 13.99-11.127ZM395.772 535.723c-10.252 24.377-17.708 50.409-20.786 77.415-4.433.524-9.448 1.44-13.23 2.22 4.414-24.826 11.923-48.929 21.233-73.636 4.348-2.438 9.049-4.759 12.783-5.999Z"/><path fill="url(#e)" d="M408.76 448.051c4.623-.592 13.735-.49 18.17-.345l137.795 12.975-33.495 144.067c-86.858-38.575-139.445-97.216-142.746-122.726-3.3-25.509 14.05-32.617 18.752-33.712a15.8 15.8 0 0 1 1.524-.259Z"/><defs><linearGradient id="a" x1="153.952" x2="134.176" y1="333.051" y2="352.289" gradientUnits="userSpaceOnUse"><stop stop-color="#3EA830" stop-opacity="0"/><stop offset=".5" stop-color="#3EA830" stop-opacity=".5"/><stop offset="1" stop-color="#3EA830"/></linearGradient><linearGradient id="d" x1="261.997" x2="262.869" y1="379.921" y2="448.895" gradientUnits="userSpaceOnUse"><stop stop-color="#48A83B"/><stop offset=".5" stop-color="#48A83B" stop-opacity=".5"/><stop offset="1" stop-color="#48A83B" stop-opacity="0"/></linearGradient><linearGradient id="e" x1="392.082" x2="403.036" y1="452.946" y2="509.375" gradientUnits="userSpaceOnUse"><stop stop-color="#78C93C"/><stop offset=".5" stop-color="#5BB936"/><stop offset="1" stop-color="#3EA830"/></linearGradient><radialGradient id="b" cx="0" cy="0" r="1" gradientTransform="matrix(333.36278 -3.76183 3.73921 331.3579 285.037 299.243)" gradientUnits="userSpaceOnUse"><stop offset=".78" stop-color="#78C93C"/><stop offset=".88" stop-color="#5BB936"/><stop offset=".97" stop-color="#3EA82F"/></radialGradient><radialGradient id="c" cx="0" cy="0" r="1" gradientTransform="rotate(-.637 26996.445 -25471.197) scale(310.202 308.634)" gradientUnits="userSpaceOnUse"><stop offset=".78" stop-color="#78C93C"/><stop offset=".88" stop-color="#5BB936"/><stop offset=".97" stop-color="#3EA82F"/></radialGradient></defs></svg>