<svg xmlns="http://www.w3.org/2000/svg" fill="none" viewBox="0 0 173 176">
  <path fill="#F49000" d="M18.7 102c3-1.8 7-.9 8.8 2.1v.1L33 113c1.9 3 .9 7-2.1 8.8-3 1.8-7 .9-8.9-2.1l-5.3-8.7c-1.9-3-1-7 2.1-8.8ZM127.6 132c1.7 3.2.5 7-2.7 8.7l-9 4.8c-3.1 1.6-7 .4-8.7-2.7-1.7-3.1-.5-7 2.6-8.7l9-4.7c3.2-1.7 7-.5 8.7 2.6Z"/>
  <path fill="#58CC02" d="m20.8 24.5 65.5 36.8a6 6 0 0 1 1 9.5A45.5 45.5 0 0 1 12 28.5a6 6 0 0 1 8.8-4Z"/>
  <path fill="#58CC02" d="M165.6 64.4a6 6 0 0 1 5.5 7.8 45.1 45.1 0 0 1-43.9 29.9 45.4 45.4 0 0 1-42.5-32 5.8 5.8 0 0 1 5.8-7.7l75 2Z"/>
  <path fill="#58CC02" d="M133.4 22.5c-2.1-.5-4.4-.7-6.7-.5a86 86 0 0 1-27.5 1A86 86 0 0 1 76 8c-2-1.4-4-2.4-6.2-3-9-2.5-18.2 2.7-20.7 11.7l-13.8 50a50 50 0 0 0 96 26.5l13.9-50c2.5-9-2.8-18.2-11.8-20.7Z"/>
  <path fill="#89E219" d="M96.2 98.5 84 95.2a1 1 0 0 0-1.2.7v.3a7.5 7.5 0 0 0 5.6 6.6c3.2.9 6.7-.3 8.4-2.8.2-.4.1-1-.4-1.3a1 1 0 0 0-.3-.2Zm-20.6-4.3c.3-.5.2-1-.3-1.3a.6.6 0 0 0-.3-.2l-12-3.3c-.5-.2-1 0-1.2.5v.4a7.5 7.5 0 0 0 5.6 6.6c3.1.9 6.5-.2 8.2-2.7Zm7.1 11.7-12-3.4c-.6-.1-1.1.2-1.3.7v.3A7.5 7.5 0 0 0 75 110c3.3.9 6.7-.2 8.3-2.8.3-.4.2-1-.2-1.3l-.4-.1ZM77.8 17.8l10.1 19.7c.5 1 .1 2-.8 2.4l-.5.1c-7.3 1-14-4.1-15-11.4-.7-4.1.7-8.2 3.7-11.2 1-.9 2-.7 2.5.4Z"/>
  <path fill="#89E219" d="m69.6 19.5 9.9 19.7c.4.9 0 2-.9 2.4l-.4.1a13.4 13.4 0 0 1-11.4-22.6c.7-.6 1.8-.7 2.4 0l.4.4Z"/>
  <path fill="#89E219" d="m73 24.1 1.4.4c10 2.8 15.8 13 13 22.9L84.4 59a18.6 18.6 0 0 1-23 13l-1.4-.4c-9.9-2.8-15.8-13-13-22.8v-.1L50 37c2.7-9.9 13-15.7 23-13ZM120 29.4c1-.6 2-.3 2.4 1a13.3 13.3 0 0 1-9.8 16.1c-4 1-8.3.1-11.7-2.5-.7-.7-.8-1.8-.2-2.5l.4-.3 19-11.8Z"/>
  <path fill="#89E219" d="M126.2 35.1c.7-.5 1.8-.3 2.3.5l.3.5a13.3 13.3 0 0 1-9.8 16.2c-4 1-8.3 0-11.6-2.5-.8-.7-.8-1.8-.2-2.5l.3-.3L126.2 35Z"/>
  <path fill="#89E219" d="M120.9 37.3c9.9 2.8 15.7 13 13 23l-3.2 11.5a18.6 18.6 0 0 1-22.9 13l-1.4-.4c-10-2.8-15.8-13-13.1-22.8v-.1l3.2-11.6c2.7-9.9 13-15.7 22.9-13l1.5.4Z"/>
  <path fill="#89E219" d="M104.7 39A13.3 13.3 0 0 1 86 33.7c-3.3 11.5-6.1 21.8-8.5 30.8l9.3 2.5 9.3 2.7c2.7-9 5.5-19.4 8.6-30.9Z"/>
  <path fill="#fff" d="M71.3 31c7.4 2 11.7 9.5 9.6 16.7l-2.1 8a13.7 13.7 0 0 1-26.4-7.3l2.1-8c2-7.2 9.5-11.4 16.8-9.5Z"/>
  <path fill="#122431" d="M71.1 39c3.5 1 5.5 4.5 4.6 8l-1.9 6.8a6.5 6.5 0 0 1-12.6-3.5l1.9-6.8c1-3.4 4.6-5.4 8-4.5Z"/>
  <path fill="#fff" d="M66 37.1a4 4 0 0 1 2.9 5 4.1 4.1 0 0 1-5 2.9 4.1 4.1 0 0 1-3-5 4 4 0 0 1 5-2.9h.1ZM118.8 44c7.3 2 11.6 9.5 9.6 16.8l-2.2 8a13.7 13.7 0 0 1-26.4-7.3l2.2-8c2-7.2 9.5-11.5 16.7-9.5h.1Z"/>
  <path fill="#122431" d="M114.9 51c3.5 1 5.5 4.6 4.6 8l-2 6.9a6.5 6.5 0 0 1-12.5-3.5l1.9-6.8c1-3.4 4.5-5.5 8-4.6Z"/>
  <path fill="#fff" d="M109 49a4 4 0 0 1 2.9 5 4.1 4.1 0 0 1-5 2.9 4.1 4.1 0 0 1-3-5c.6-2.2 2.8-3.5 5.1-2.9Z"/>
  <path fill="#89E219" d="M98.4 68c11.1-1.4 21-1.8 29.4-1.2 0 0-2.2 14.2-13.5 14.6C99.7 81.9 98.4 68 98.4 68Zm-42.3-2.6C46.5 59.3 52 46 52 46a134 134 0 0 1 24.6 16.1S68.4 73.2 56 65.4Z"/>
  <path fill="#F49000" d="M89.6 57.4c3.7 1 6 5 5 8.7l-3.2 11.4a7.1 7.1 0 0 1-13.7-3.8l3.1-11.4c1.1-3.7 5-5.9 8.8-4.9Z"/>
  <path fill="#B66E28" d="M88.8 60c3 .9 4.7 3.9 3.9 6.8l-2.1 7.5c-.8 3-3.8 4.6-6.7 3.8-3-.8-4.6-3.8-3.9-6.7l2.1-7.5a5.5 5.5 0 0 1 6.7-3.8Z"/>
  <path fill="#FFC200" d="m87.4 65.4 9.6 1c.2 0 .3-.1.3-.3a10 10 0 0 0-18.9-5.2c0 .2 0 .4.2.4l8.8 4Z"/>
  <path fill="#FFDE00" d="m91 60.5-.4-.2c-1-.6-2.2-1-3.4-1-.8 0-1.4-.7-1.4-1.5.1-.7.7-1.3 1.4-1.3 1.7 0 3.5.5 5 1.3.6.4.8 1.4.4 2-.3.5-1 .8-1.6.7Z"/>
  <path fill="#AFAFAF" d="M34 175.9c-2.3 0-4-1.8-4-4s1.7-3.9 4-3.9h84c2.2 0 3.9 1.7 3.9 4 0 2.1-1.7 3.9-4 3.9H34Z" opacity=".3"/>
</svg>
