<svg xmlns="http://www.w3.org/2000/svg" fill="none" viewBox="0 0 81 144">
  <path stroke="#000" stroke-linecap="round" stroke-width="3" d="M65.6 68.4V68"/>
  <path fill="url(#a)" stroke="#0D0D0D" stroke-linecap="round" stroke-width="2" d="M32.6 18.2c3.8-7.7 8.5-9.6 11.8-9.2 3.4.4 6.7 3.3 7.5 8.2 1 6.2 3.4 25 4.8 43.6.6 9.4 1 18.7.7 26.3 0 3.8-.4 7.2-.8 9.9a17 17 0 0 1-1.6 5.5c-1.6 2.7-3 3.8-4 4.3-1 .4-1.9.4-2.8 0-1-.4-2-1.3-2.9-2.4a10 10 0 0 1-1.8-3.6 425.8 425.8 0 0 1-1.7-15.2l-1.5-20.7a3.5 3.5 0 0 0-7 .4 1032.3 1032.3 0 0 0 2.5 30.9c.3 2.7.6 5 1 6.3 1 4 4.2 8.8 8.8 10.7 2.5 1 5.3 1.2 8.2 0 2.7-1.3 5.1-3.7 7.2-7.1 1.2-2.1 2-5 2.5-8 .5-3.1.8-6.8.9-10.8.3-8-.1-17.5-.8-27-1.3-18.9-3.8-37.8-4.8-44.2C57.6 8.5 52 3 45.2 2.1 38 1.3 30.9 5.7 26.4 15c-2.5 5-3.5 13.4-3.8 22.6a426.8 426.8 0 0 0 7.5 84.5 31.4 31.4 0 0 0 7.9 16.2c3.7 3.5 8.1 4.6 12.7 4.6s9.7-1.5 13.6-4.7c4-3.1 6.8-7.9 6.8-14.3l.1-8.2v0c.3-12.8.7-36-.1-48.6a3.5 3.5 0 0 0-7 .4c.8 12.4.4 34.8.1 47.7v0l-.1 8.7c0 7.7-6.7 12-13.4 12-3.4 0-5.9-.7-8-2.6-2.1-2-4.2-5.8-5.8-12.8A421.5 421.5 0 0 1 29.5 38c.2-4.7.5-8.7 1-12.1.6-3.4 1.3-6 2.1-7.7Z"/>
  <path fill="#fff" stroke="#000" stroke-linecap="round" stroke-width="2" d="M46.3 34.1c.4-10.6 26.2-15.4 31.3-3.1 6.2 14.6-31.8 18-31.3 3.1Z"/>
  <path fill="#fff" stroke="#000" stroke-linecap="round" stroke-width="2" d="M46.3 34.1c.4-10.6 26.2-15.4 31.3-3.1 6.2 14.6-31.8 18-31.3 3.1Z"/>
  <path fill="#0D0D0D" d="M53.5 38c2.1 0 3.8-1.7 3.8-3.9s-1.7-4-3.8-4a3.9 3.9 0 0 0-3.8 4c0 2.2 1.7 4 3.8 4Z"/>
  <path fill="url(#b)" d="M46.6 34.4c.3-10.7 25.7-15.7 30.8-3.4a62.4 62.4 0 0 0-30.8 3.4Z"/>
  <path stroke="#000" stroke-linecap="round" stroke-width="2" d="M46.3 34.1c.4-10.6 26.2-15.4 31.3-3.1 6.2 14.6-31.8 18-31.3 3.1Z"/>
  <path stroke="#000" stroke-linecap="round" stroke-width="2" d="M42.7 35c3.2-.4 6.3-2 9.3-2.7 4.1-1 8.3-1.6 12.4-2A30 30 0 0 1 80 31.5"/>
  <path fill="#fff" stroke="#000" stroke-linecap="round" stroke-width="2" d="M4.6 37.8c.3-10.6 26.2-15.3 31.3-3 6.1 14.5-31.8 18-31.3 3Z"/>
  <path fill="#fff" stroke="#000" stroke-linecap="round" stroke-width="2" d="M4.6 37.8c.3-10.6 26.2-15.3 31.3-3 6.1 14.5-31.8 18-31.3 3Z"/>
  <path fill="#0D0D0D" d="M11.8 41.8c2 0 3.8-1.8 3.8-4 0-2.1-1.7-3.9-3.8-3.9A3.9 3.9 0 0 0 8 38c0 2.1 1.7 4 3.8 4Z"/>
  <path fill="url(#c)" d="M4.8 38.1c.3-10.6 25.8-15.6 30.9-3.4a62.4 62.4 0 0 0-30.9 3.4Z"/>
  <path stroke="#000" stroke-linecap="round" stroke-width="2" d="M4.6 37.8c.3-10.6 26.2-15.3 31.3-3 6.1 14.5-31.8 18-31.3 3Z"/>
  <path stroke="#000" stroke-linecap="round" stroke-width="2" d="M1 38.7c3.1-.3 6.2-1.9 9.3-2.6 4-1 8.3-1.6 12.4-2.1a30 30 0 0 1 15.6 1.4"/>
  <defs>
    <linearGradient id="a" x1="27.5" x2="70.4" y1="79.6" y2="53" gradientUnits="userSpaceOnUse">
      <stop stop-color="#8C8C8C"/>
      <stop offset="1" stop-color="#E5E5E5"/>
    </linearGradient>
    <linearGradient id="b" x1="47.3" x2="72.8" y1="32.8" y2="28.5" gradientUnits="userSpaceOnUse">
      <stop stop-color="#8C8C8C"/>
      <stop offset="1" stop-color="#E5E5E5"/>
    </linearGradient>
    <linearGradient id="c" x1="5.6" x2="31" y1="36.5" y2="32.3" gradientUnits="userSpaceOnUse">
      <stop stop-color="#8C8C8C"/>
      <stop offset="1" stop-color="#E5E5E5"/>
    </linearGradient>
  </defs>
</svg>
